<?xml version="1.0" encoding="UTF-8" standalone="no"?><!-- Created with Inkscape (http://www.inkscape.org/) -->

<svg xmlns:cc="http://creativecommons.org/ns#" xmlns:dc="http://purl.org/dc/elements/1.1/"
	xmlns:inkscape="http://www.inkscape.org/namespaces/inkscape"
	xmlns:rdf="http://www.w3.org/1999/02/22-rdf-syntax-ns#"
	xmlns:sodipodi="http://sodipodi.sourceforge.net/DTD/sodipodi-0.dtd" height="3.43958mm"
	id="svg30287" version="1.1" viewBox="0 0 2.8649399 3.43958" width="2.8649399mm"
	xmlns="http://www.w3.org/2000/svg" inkscape:version="0.92.4 (5da689c313, 2019-01-14)"
	sodipodi:docname="culture.svg">
	<defs id="defs30281" />
	<sodipodi:namedview bordercolor="#666666" borderopacity="1.0" id="base" pagecolor="#ffffff"
		showgrid="false" inkscape:current-layer="layer1" inkscape:cx="1011.1284"
		inkscape:cy="-293.50001" inkscape:document-units="mm" inkscape:pageopacity="0.0"
		inkscape:pageshadow="2" inkscape:window-height="1495" inkscape:window-maximized="1"
		inkscape:window-width="2880" inkscape:window-x="-13" inkscape:window-y="-13"
		inkscape:zoom="0.35" />
	<metadata id="metadata30284">
		<rdf:RDF>
			<cc:Work rdf:about="">
				<dc:format>image/svg+xml</dc:format>
				<dc:type rdf:resource="http://purl.org/dc/dcmitype/StillImage" />
				<dc:title></dc:title>
			</cc:Work>
		</rdf:RDF>
	</metadata>
	<g id="layer1" transform="translate(210.07533,-67.738543)" inkscape:groupmode="layer"
		inkscape:label="Layer 1">
		<path
			style="fill:#ffffff;fill-opacity:1;fill-rule:nonzero;stroke:none;stroke-width:0.35277778"
			d="m -209.72531,68.649313 v 2.38539 c -0.12127,-0.0262 -0.21359,-0.13918 -0.21359,-0.27423 v -2.21176 c 0.0593,0.0524 0.13229,0.0882 0.21359,0.1006 m 0.52366,0.007 v 0.93707 l 0.33073,-0.24529 0.29765,0.26045 v -0.95223 h 1.11346 v 2.38401 h -2.12907 v -2.38401 z m 0.49196,0 v 0.65044 l -0.15297,-0.13505 -0.20257,0.15021 v -0.6656 z m -0.9481,-0.66835 h 2.09876 c 0.0262,0.0661 0.0909,0.113 0.16674,0.113 0.1006,0 0.1819,-0.0813 0.1819,-0.1819 0,-0.0992 -0.0813,-0.18052 -0.1819,-0.18052 -0.0758,0 -0.14056,0.0469 -0.16812,0.113 h -2.09738 c -0.23013,0 -0.41754,0.18052 -0.41754,0.40239 v 2.50665 c 0,0.23013 0.18052,0.41754 0.40239,0.41754 0.003,0 0.005,-0.001 0.008,-0.001 0.003,0 0.004,0.001 0.007,0.001 h 2.2655 c 0.0386,0 0.0689,-0.0317 0.0689,-0.0689 v -2.52043 c 0,-0.0386 -0.0303,-0.0689 -0.0689,-0.0689 h -2.2655 c -0.15434,0 -0.28112,-0.11989 -0.28112,-0.26596 0,-0.14608 0.12678,-0.26597 0.28112,-0.26597"
			id="path67095" inkscape:connector-curvature="0" />
	</g>
</svg>
