<?xml version="1.0" encoding="UTF-8" standalone="no"?><!-- Created with Inkscape (http://www.inkscape.org/) -->

<svg xmlns:cc="http://creativecommons.org/ns#" xmlns:dc="http://purl.org/dc/elements/1.1/"
	xmlns:inkscape="http://www.inkscape.org/namespaces/inkscape"
	xmlns:rdf="http://www.w3.org/1999/02/22-rdf-syntax-ns#"
	xmlns:sodipodi="http://sodipodi.sourceforge.net/DTD/sodipodi-0.dtd" height="4.1688099mm"
	id="svg30233" version="1.1" viewBox="0 0 3.6670001 4.1688099" width="3.6670001mm"
	xmlns="http://www.w3.org/2000/svg" inkscape:version="0.92.4 (5da689c313, 2019-01-14)"
	sodipodi:docname="ecology.svg">
	<defs id="defs30227" />
	<sodipodi:namedview bordercolor="#666666" borderopacity="1.0" id="base" pagecolor="#ffffff"
		showgrid="false" inkscape:current-layer="layer1" inkscape:cx="1784.0727"
		inkscape:cy="-229.26479" inkscape:document-units="mm" inkscape:pageopacity="0.0"
		inkscape:pageshadow="2" inkscape:window-height="1495" inkscape:window-maximized="1"
		inkscape:window-width="2880" inkscape:window-x="-13" inkscape:window-y="-13"
		inkscape:zoom="0.35" />
	<metadata id="metadata30230">
		<rdf:RDF>
			<cc:Work rdf:about="">
				<dc:format>image/svg+xml</dc:format>
				<dc:type rdf:resource="http://purl.org/dc/dcmitype/StillImage" />
				<dc:title></dc:title>
			</cc:Work>
		</rdf:RDF>
	</metadata>
	<g id="layer1" transform="translate(414.58351,-84.004881)" inkscape:groupmode="layer"
		inkscape:label="Layer 1">
		<path
			style="fill:#ffffff;fill-opacity:1;fill-rule:nonzero;stroke:none;stroke-width:0.35277778"
			d="m -413.58303,86.526971 c -0.0124,-0.0138 -0.0303,-0.0207 -0.0482,-0.0207 h -0.6022 c -0.0276,-0.0661 -0.0923,-0.113 -0.1695,-0.113 -0.0992,0 -0.18052,0.0813 -0.18052,0.18052 0,0.1006 0.0813,0.1819 0.18052,0.1819 0.0772,0 0.14194,-0.0468 0.1695,-0.113 h 0.57189 l 0.49471,0.51539 v 0.94671 c 0,0.0372 0.0303,0.0689 0.0675,0.0689 0.0386,0 0.0689,-0.0317 0.0689,-0.0689 v -0.97427 c 0,-0.0165 -0.007,-0.0344 -0.0193,-0.0469 z m 0,0"
			id="path67195" inkscape:connector-curvature="0" />
		<path
			style="fill:#ffffff;fill-opacity:1;fill-rule:nonzero;stroke:none;stroke-width:0.35277778"
			d="m -411.09843,86.393301 c -0.0758,0 -0.14055,0.0469 -0.16812,0.113 h -0.6022 c -0.0179,0 -0.0358,0.007 -0.0496,0.0207 l -0.5333,0.55672 c -0.011,0.0124 -0.0179,0.0303 -0.0179,0.0469 v 0.97427 c 0,0.0372 0.0303,0.0675 0.0675,0.0675 0.0386,0 0.0689,-0.0303 0.0689,-0.0675 v -0.94671 l 0.49334,-0.51539 h 0.57326 c 0.0276,0.0662 0.0923,0.113 0.16812,0.113 0.1006,0 0.18191,-0.0813 0.18191,-0.1819 0,-0.0992 -0.0813,-0.18052 -0.18191,-0.18052"
			id="path67197" inkscape:connector-curvature="0" />
		<path
			style="fill:#ffffff;fill-opacity:1;fill-rule:nonzero;stroke:none;stroke-width:0.35277778"
			d="m -411.60692,86.233441 0.45751,-0.4575 c 0.0165,0.005 0.0331,0.008 0.051,0.008 0.1006,0 0.1819,-0.0813 0.1819,-0.18052 0,-0.1006 -0.0813,-0.1819 -0.1819,-0.1819 -0.1006,0 -0.1819,0.0813 -0.1819,0.1819 0,0.0317 0.01,0.0606 0.0234,0.0868 l -0.40652,0.40653 h -0.30317 v -0.32522 c 0.0661,-0.0275 0.113,-0.0923 0.113,-0.16812 0,-0.1006 -0.0813,-0.1819 -0.18191,-0.1819 -0.0992,0 -0.18052,0.0813 -0.18052,0.1819 0,0.0758 0.0469,0.14056 0.113,0.16812 v 0.35416 l -0.57878,0.57877 v -1.05833 l 0.7028,-0.7028 v -0.32935 c 0.0661,-0.0276 0.11438,-0.0923 0.11438,-0.16812 0,-0.1006 -0.0813,-0.18191 -0.1819,-0.18191 -0.1006,0 -0.1819,0.0813 -0.1819,0.18191 0,0.0758 0.0469,0.14056 0.113,0.16812 v 0.27285 l -0.56638,0.56637 v -1.09829 c 0.0661,-0.0276 0.11301,-0.0923 0.11301,-0.1695 0,-0.0992 -0.0813,-0.18053 -0.18191,-0.18053 -0.0992,0 -0.18052,0.0813 -0.18052,0.18053 0,0.0772 0.0469,0.14193 0.113,0.1695 v 1.09829 l -0.56775,-0.56637 v -0.27285 c 0.0675,-0.0276 0.11438,-0.0923 0.11438,-0.16812 0,-0.1006 -0.0813,-0.18191 -0.18191,-0.18191 -0.10059,0 -0.1819,0.0813 -0.1819,0.18191 0,0.0758 0.0469,0.14056 0.113,0.16812 v 0.32935 l 0.70418,0.7028 v 1.05833 l -0.57877,-0.57876 v -0.35416 c 0.0661,-0.0276 0.113,-0.0923 0.113,-0.16812 0,-0.1006 -0.0813,-0.1819 -0.1819,-0.1819 -0.0992,0 -0.18053,0.0813 -0.18053,0.1819 0,0.0758 0.0455,0.14056 0.113,0.16812 v 0.32522 h -0.30317 l -0.40238,-0.40239 c 0.011,-0.0234 0.0179,-0.051 0.0179,-0.0786 0,-0.10059 -0.0813,-0.1819 -0.18053,-0.1819 -0.10059,0 -0.1819,0.0813 -0.1819,0.1819 0,0.1006 0.0813,0.18191 0.1819,0.18191 0.0207,0 0.0413,-0.006 0.0606,-0.0124 l 0.44786,0.44786 h 0.41066 l 0.73174,0.73174 0.73174,-0.73174 z m 0,0"
			id="path67199" inkscape:connector-curvature="0" />
		<path
			style="fill:#ffffff;fill-opacity:1;fill-rule:nonzero;stroke:none;stroke-width:0.35277778"
			d="m -414.06534,85.118611 c 0.10059,0 0.1819,-0.0813 0.1819,-0.18052 0,-0.1006 -0.0813,-0.1819 -0.1819,-0.1819 -0.1006,0 -0.1819,0.0813 -0.1819,0.1819 0,0.0992 0.0813,0.18052 0.1819,0.18052"
			id="path67201" inkscape:connector-curvature="0" />
		<path
			style="fill:#ffffff;fill-opacity:1;fill-rule:nonzero;stroke:none;stroke-width:0.35277778"
			d="m -411.43467,85.118611 c 0.0992,0 0.18053,-0.0813 0.18053,-0.18052 0,-0.1006 -0.0813,-0.1819 -0.18053,-0.1819 -0.10059,0 -0.1819,0.0813 -0.1819,0.1819 0,0.0992 0.0813,0.18052 0.1819,0.18052"
			id="path67203" inkscape:connector-curvature="0" />
	</g>
</svg>
