<?xml version="1.0" encoding="UTF-8" standalone="no"?><!-- Created with Inkscape (http://www.inkscape.org/) -->

<svg xmlns:cc="http://creativecommons.org/ns#" xmlns:dc="http://purl.org/dc/elements/1.1/"
	xmlns:inkscape="http://www.inkscape.org/namespaces/inkscape"
	xmlns:rdf="http://www.w3.org/1999/02/22-rdf-syntax-ns#"
	xmlns:sodipodi="http://sodipodi.sourceforge.net/DTD/sodipodi-0.dtd" height="4.1175399mm"
	id="svg30264" version="1.1" viewBox="0 0 2.9484913 4.1175399" width="2.9484913mm"
	xmlns="http://www.w3.org/2000/svg" inkscape:version="0.92.4 (5da689c313, 2019-01-14)"
	sodipodi:docname="health.svg">
	<defs id="defs30258" />
	<sodipodi:namedview bordercolor="#666666" borderopacity="1.0" id="base" pagecolor="#ffffff"
		showgrid="false" inkscape:current-layer="layer1" inkscape:cx="845.57352"
		inkscape:cy="-735.07597" inkscape:document-units="mm" inkscape:pageopacity="0.0"
		inkscape:pageshadow="2" inkscape:window-height="1495" inkscape:window-maximized="1"
		inkscape:window-width="2880" inkscape:window-x="-13" inkscape:window-y="-13"
		inkscape:zoom="0.35" />
	<metadata id="metadata30261">
		<rdf:RDF>
			<cc:Work rdf:about="">
				<dc:format>image/svg+xml</dc:format>
				<dc:type rdf:resource="http://purl.org/dc/dcmitype/StillImage" />
				<dc:title></dc:title>
			</cc:Work>
		</rdf:RDF>
	</metadata>
	<g id="layer1" transform="translate(166.27228,49.773056)" inkscape:groupmode="layer"
		inkscape:label="Layer 1">
		<path
			style="fill:#ffffff;fill-opacity:1;fill-rule:nonzero;stroke:none;stroke-width:0.35277778"
			d="m -163.48449,-46.922796 c -0.0482,0.10198 -0.13091,0.16261 -0.22875,0.16261 h -0.72347 c 0.008,-0.16261 -0.0275,-0.32384 -0.10749,-0.46716 -0.11438,-0.20532 -0.37345,-0.42719 -0.69039,-0.64905 0.0469,-0.0799 0.0937,-0.16261 0.13918,-0.24254 h 1.11345 c 0.18741,0.33211 0.42306,0.74966 0.49334,0.88057 0.051,0.091 0.051,0.21222 0.004,0.31557 m -1.11483,0.31833 c -0.0469,0.16674 -0.14608,0.3073 -0.2825,0.40376 l -0.16399,-0.28801 0.16674,-0.59531 c 0.011,-0.0358 -0.01,-0.073 -0.0469,-0.0841 -0.0358,-0.01 -0.0744,0.011 -0.0841,0.0482 l -0.12953,0.46302 -0.62425,-1.09967 c -0.0179,-0.0331 -0.0593,-0.0441 -0.0923,-0.0262 -0.0331,0.0193 -0.0441,0.0606 -0.0262,0.0937 l 0.32659,0.57601 h -0.29628 c -0.0372,0 -0.0675,0.0303 -0.0675,0.0689 0,0.0372 0.0303,0.0689 0.0675,0.0689 h 0.37345 l 0.47818,0.84198 c -0.34451,0.15572 -0.75792,0.0248 -0.94534,-0.31006 -0.20257,-0.3638 -0.19705,-1.27468 -0.18603,-1.8383 0.48783,0.28525 1.26504,0.75792 1.46899,1.12172 0.0937,0.16812 0.11576,0.36518 0.0634,0.55535 m -0.22187,-1.99126 0.006,-0.01 0.001,-0.70142 h 0.20809 c 0.0358,0 0.0648,-0.0289 0.0648,-0.0634 0,-0.0358 -0.0289,-0.0634 -0.0634,-0.0634 h -0.25494 c -0.0165,-0.007 -0.0758,-0.0427 -0.0758,-0.12678 0,-0.0331 0.008,-0.0565 0.0248,-0.0703 0.0138,-0.0124 0.0303,-0.0152 0.0386,-0.0152 h 0.67524 c 0.003,0 0.0124,10e-4 0.0221,0.011 0.01,0.01 0.0207,0.0303 0.0207,0.0744 0,0.0372 -0.008,0.0661 -0.0262,0.091 -0.0138,0.0165 -0.0289,0.0289 -0.0441,0.0413 l -0.0358,0.0276 v 0.78961 l 0.20671,0.36519 h -0.96876 c 0.0772,-0.1323 0.14745,-0.25356 0.20119,-0.35003 m 1.44418,1.29674 c -0.0772,-0.14332 -0.35415,-0.6339 -0.51263,-0.91364 l -0.24391,-0.43133 v -0.69453 c 0.0165,-0.0138 0.0358,-0.0317 0.0538,-0.0551 0.0345,-0.0455 0.0524,-0.10198 0.0524,-0.16675 0,-0.0689 -0.0193,-0.1254 -0.0579,-0.16398 -0.0303,-0.0303 -0.0717,-0.0482 -0.11162,-0.0482 h -0.67524 c -0.0413,0 -0.0868,0.0165 -0.11989,0.0441 -0.0331,0.0276 -0.0703,0.0786 -0.0703,0.16812 0,0.13505 0.0827,0.20396 0.12265,0.22876 l 0.001,0.68626 c -0.0675,0.11713 -0.15572,0.2701 -0.24805,0.43133 l -0.15296,0.26458 c -0.2577,-0.17363 -0.5457,-0.34589 -0.82269,-0.5085 l -0.10059,-0.0593 -0.003,0.11576 c -0.0165,0.77445 -0.0165,1.63435 0.19981,2.02433 0.15985,0.28526 0.45751,0.44649 0.76206,0.44649 0.1254,0 0.2508,-0.0289 0.36931,-0.0841 l 0.18466,0.32521 c 0.0124,0.022 0.0358,0.0345 0.0593,0.0345 0.011,0 0.0234,-0.003 0.0331,-0.01 0.0331,-0.0179 0.0441,-0.0593 0.0262,-0.0923 l -0.18328,-0.32522 c 0.16812,-0.11438 0.28939,-0.28388 0.34588,-0.48645 0.007,-0.0207 0.011,-0.0427 0.0152,-0.0648 h 0.74415 c 0.14469,0 0.27009,-0.0882 0.33899,-0.23565 0.0648,-0.13918 0.062,-0.30455 -0.007,-0.42995"
			id="path66871" inkscape:connector-curvature="0" />
	</g>
</svg>
