<?xml version="1.0" encoding="UTF-8" standalone="no"?><!-- Created with Inkscape (http://www.inkscape.org/) -->

<svg xmlns:cc="http://creativecommons.org/ns#" xmlns:dc="http://purl.org/dc/elements/1.1/"
	xmlns:inkscape="http://www.inkscape.org/namespaces/inkscape"
	xmlns:rdf="http://www.w3.org/1999/02/22-rdf-syntax-ns#"
	xmlns:sodipodi="http://sodipodi.sourceforge.net/DTD/sodipodi-0.dtd" height="3.5222399mm"
	id="svg30166" version="1.1" viewBox="0 0 3.64079 3.5222399" width="3.64079mm"
	xmlns="http://www.w3.org/2000/svg" inkscape:version="0.92.4 (5da689c313, 2019-01-14)"
	sodipodi:docname="industrial.svg">
	<defs id="defs30160" />
	<sodipodi:namedview bordercolor="#666666" borderopacity="1.0" id="base" pagecolor="#ffffff"
		showgrid="false" inkscape:current-layer="layer1" inkscape:cx="1986.8802"
		inkscape:cy="-764.77237" inkscape:document-units="mm" inkscape:pageopacity="0.0"
		inkscape:pageshadow="2" inkscape:window-height="1495" inkscape:window-maximized="1"
		inkscape:window-width="2880" inkscape:window-x="-13" inkscape:window-y="-13"
		inkscape:zoom="0.35" />
	<metadata id="metadata30163">
		<rdf:RDF>
			<cc:Work rdf:about="">
				<dc:format>image/svg+xml</dc:format>
				<dc:type rdf:resource="http://purl.org/dc/dcmitype/StillImage" />
				<dc:title></dc:title>
			</cc:Work>
		</rdf:RDF>
	</metadata>
	<g id="layer1" transform="translate(468.24301,57.03493)" inkscape:groupmode="layer"
		inkscape:label="Layer 1">
		<path
			style="fill:#ffffff;fill-opacity:1;fill-rule:nonzero;stroke:none;stroke-width:0.35277778"
			d="m -465.33671,-53.953589 c -0.0248,0 -0.0469,0.006 -0.0689,0.0138 l -0.43546,-0.450622 c -0.0138,-0.0138 -0.0317,-0.0207 -0.0496,-0.0207 h -0.50849 c -0.47543,0 -0.86265,-0.38723 -0.86265,-0.86265 0,-0.44373 0.34588,-0.82131 0.78823,-0.8599 0.0372,-0.003 0.0648,-0.0358 0.062,-0.0744 -0.003,-0.0372 -0.0372,-0.0648 -0.0744,-0.062 -0.51125,0.0441 -0.91226,0.48231 -0.91226,0.99632 0,0.55121 0.44786,0.999081 0.99908,0.999081 h 0.47955 l 0.41755,0.42994 c -0.011,0.0221 -0.0165,0.0469 -0.0165,0.073 0,0.10059 0.0813,0.181899 0.1819,0.181899 0.10059,0 0.18052,-0.0813 0.18052,-0.181899 0,-0.1006 -0.0799,-0.1819 -0.18052,-0.1819"
			id="path66969" inkscape:connector-curvature="0" />
		<path
			style="fill:#ffffff;fill-opacity:1;fill-rule:nonzero;stroke:none;stroke-width:0.35277778"
			d="m -464.85164,-54.60816 c -0.0758,0 -0.14056,0.0469 -0.16813,0.113 h -0.33348 l -0.40377,-0.40376 c -0.0124,-0.0124 -0.0303,-0.0207 -0.0482,-0.0207 h -0.67661 c -0.19568,0 -0.35554,-0.15848 -0.35554,-0.35416 0,-0.19568 0.15986,-0.35553 0.35554,-0.35553 h 0.67661 c 0.0179,0 0.0358,-0.007 0.0482,-0.0193 l 0.40377,-0.40377 h 0.33348 c 0.0276,0.0661 0.0923,0.113 0.16813,0.113 0.10059,0 0.1819,-0.0813 0.1819,-0.18052 0,-0.1006 -0.0813,-0.1819 -0.1819,-0.1819 -0.0758,0 -0.14056,0.0468 -0.16813,0.113 h -0.36242 c -0.0179,0 -0.0358,0.007 -0.0482,0.0193 l -0.40239,0.40377 h -0.64905 c -0.27148,0 -0.49196,0.22049 -0.49196,0.49196 0,0.27148 0.22048,0.49196 0.49196,0.49196 h 0.64905 l 0.40239,0.40239 c 0.0124,0.0138 0.0303,0.0207 0.0482,0.0207 h 0.36242 c 0.0276,0.0661 0.0923,0.113 0.16813,0.113 0.10059,0 0.1819,-0.0813 0.1819,-0.1819 0,-0.1006 -0.0813,-0.18053 -0.1819,-0.18053"
			id="path66971" inkscape:connector-curvature="0" />
		<path
			style="fill:#ffffff;fill-opacity:1;fill-rule:nonzero;stroke:none;stroke-width:0.35277778"
			d="m -466.14425,-53.9908 c -0.0372,0 -0.0675,0.0303 -0.0675,0.0689 v 0.27285 h -0.54019 v -0.31419 c 0,-0.0317 -0.0221,-0.0593 -0.0524,-0.0675 -0.11576,-0.0289 -0.22738,-0.0758 -0.32935,-0.13643 -0.0276,-0.0152 -0.062,-0.011 -0.0841,0.011 l -0.22187,0.221872 -0.3831,-0.381721 0.22325,-0.22187 c 0.022,-0.022 0.0262,-0.0565 0.011,-0.0841 -0.062,-0.10197 -0.10748,-0.21359 -0.1378,-0.33072 -0.008,-0.0303 -0.0345,-0.051 -0.0661,-0.051 h -0.31419 v -0.54019 h 0.31419 c 0.0317,0 0.0579,-0.0207 0.0661,-0.051 0.0303,-0.11713 0.0758,-0.22875 0.1378,-0.33073 0.0152,-0.0275 0.011,-0.062 -0.011,-0.0841 l -0.22325,-0.22186 0.3831,-0.38172 0.22187,0.22187 c 0.022,0.022 0.0565,0.0262 0.0841,0.011 0.10197,-0.0606 0.21359,-0.107491 0.32935,-0.137801 0.0303,-0.007 0.0524,-0.0344 0.0524,-0.0661 v -0.31419 h 0.54019 v 0.27009 c 0,0.0386 0.0303,0.0689 0.0675,0.0689 0.0386,0 0.0689,-0.0303 0.0689,-0.0689 v -0.33899 c 0,-0.0372 -0.0303,-0.0675 -0.0689,-0.0675 h -0.67661 c -0.0372,0 -0.0689,0.0303 -0.0689,0.0675 v 0.3321 c -0.0923,0.0276 -0.18328,0.0648 -0.26734,0.11025 l -0.23427,-0.23427 c -0.0262,-0.0248 -0.0717,-0.0248 -0.0965,0 l -0.47956,0.47956 c -0.0262,0.0262 -0.0262,0.0703 0,0.0965 l 0.23427,0.23427 c -0.0455,0.0854 -0.0827,0.17501 -0.11162,0.26871 h -0.33073 c -0.0372,0 -0.0675,0.0303 -0.0675,0.0675 v 0.67799 c 0,0.0372 0.0303,0.0675 0.0675,0.0675 h 0.33073 c 0.0289,0.0937 0.0661,0.18328 0.11162,0.26872 l -0.23427,0.234261 c -0.0262,0.0262 -0.0262,0.0703 0,0.0965 l 0.47956,0.47956 c 0.0262,0.0262 0.0689,0.0262 0.0965,0 l 0.23427,-0.234271 c 0.0841,0.0455 0.17501,0.0827 0.26734,0.11025 v 0.33211 c 0,0.0372 0.0317,0.0675 0.0689,0.0675 h 0.67661 c 0.0386,0 0.0689,-0.0303 0.0689,-0.0675 v -0.341759 c 0,-0.0386 -0.0303,-0.0689 -0.0689,-0.0689"
			id="path66973" inkscape:connector-curvature="0" />
		<path
			style="fill:#ffffff;fill-opacity:1;fill-rule:nonzero;stroke:none;stroke-width:0.35277778"
			d="m -466.08086,-56.27283 c -0.0372,0 -0.0675,0.0303 -0.0675,0.0675 0,0.0386 0.0303,0.0689 0.0675,0.0689 h 0.19155 c 0.0179,0 0.0358,-0.007 0.0482,-0.0207 l 0.44649,-0.446491 c 0.0179,0.006 0.0372,0.01 0.0579,0.01 0.10059,0 0.1819,-0.0813 0.1819,-0.18191 0,-0.0992 -0.0813,-0.1819 -0.1819,-0.1819 -0.1006,0 -0.18191,0.0827 -0.18191,0.1819 0,0.0303 0.008,0.0579 0.0207,0.0827 l -0.42031,0.4203 z m 0,0"
			id="path66975" inkscape:connector-curvature="0" />
		<path
			style="fill:#ffffff;fill-opacity:1;fill-rule:nonzero;stroke:none;stroke-width:0.35277778"
			d="m -464.85164,-55.15937 c -0.0634,0 -0.11438,-0.051 -0.11438,-0.11438 0,-0.0634 0.051,-0.11438 0.11438,-0.11438 0.0634,0 0.11437,0.051 0.11437,0.11438 0,0.0634 -0.051,0.11438 -0.11437,0.11438 m 0,-0.36243 c -0.11301,0 -0.20809,0.0758 -0.2384,0.18053 h -1.22922 c -0.0276,-0.0675 -0.0923,-0.11438 -0.16812,-0.11438 -0.10059,0 -0.1819,0.0813 -0.1819,0.1819 0,0.1006 0.0813,0.1819 0.1819,0.1819 0.0758,0 0.14057,-0.0468 0.16812,-0.113 h 1.22922 c 0.0303,0.10336 0.12539,0.17915 0.2384,0.17915 0.13642,0 0.24942,-0.11162 0.24942,-0.24805 0,-0.1378 -0.113,-0.24805 -0.24942,-0.24805"
			id="path66977" inkscape:connector-curvature="0" />
	</g>
</svg>
