<?xml version="1.0" encoding="UTF-8" standalone="no"?><!-- Created with Inkscape (http://www.inkscape.org/) -->

<svg xmlns:cc="http://creativecommons.org/ns#" xmlns:dc="http://purl.org/dc/elements/1.1/"
	xmlns:inkscape="http://www.inkscape.org/namespaces/inkscape"
	xmlns:rdf="http://www.w3.org/1999/02/22-rdf-syntax-ns#"
	xmlns:sodipodi="http://sodipodi.sourceforge.net/DTD/sodipodi-0.dtd" height="3.78684mm"
	id="svg30337" version="1.1" viewBox="0 0 3.3693399 3.78684" width="3.3693399mm"
	xmlns="http://www.w3.org/2000/svg" inkscape:version="0.92.4 (5da689c313, 2019-01-14)"
	sodipodi:docname="security.svg">
	<defs id="defs30331" />
	<sodipodi:namedview bordercolor="#666666" borderopacity="1.0" id="base" pagecolor="#ffffff"
		showgrid="false" inkscape:current-layer="layer1" inkscape:cx="2812.0816"
		inkscape:cy="-1755.7009" inkscape:document-units="mm" inkscape:pageopacity="0.0"
		inkscape:pageshadow="2" inkscape:window-height="1495" inkscape:window-maximized="1"
		inkscape:window-width="2880" inkscape:window-x="-13" inkscape:window-y="-13"
		inkscape:zoom="0.35" />
	<metadata id="metadata30334">
		<rdf:RDF>
			<cc:Work rdf:about="">
				<dc:format>image/svg+xml</dc:format>
				<dc:type rdf:resource="http://purl.org/dc/dcmitype/StillImage" />
				<dc:title></dc:title>
			</cc:Work>
		</rdf:RDF>
	</metadata>
	<g id="layer1" transform="translate(686.57753,319.48271)" inkscape:groupmode="layer"
		inkscape:label="Layer 1">
		<path
			style="fill:#ffffff;fill-opacity:1;fill-rule:nonzero;stroke:none;stroke-width:0.35277778"
			d="m -683.32257,-317.5259 v -0.32935 c 0,-0.33073 -0.0978,-0.64768 -0.28387,-0.91916 -0.0207,-0.0317 -0.0634,-0.0386 -0.0951,-0.0179 -0.0303,0.022 -0.0386,0.0634 -0.0179,0.0951 0.17088,0.24805 0.26045,0.54019 0.26045,0.84198 v 0.32935 c -0.0661,0.0276 -0.113,0.0923 -0.113,0.16812 0,0.1006 0.0813,0.1819 0.1819,0.1819 0.1006,0 0.1819,-0.0813 0.1819,-0.1819 0,-0.0758 -0.0469,-0.14056 -0.11437,-0.16812"
			id="path67143" inkscape:connector-curvature="0" />
		<path
			style="fill:#ffffff;fill-opacity:1;fill-rule:nonzero;stroke:none;stroke-width:0.35277778"
			d="m -686.01939,-318.80886 c 0.1006,0 0.1819,-0.0813 0.1819,-0.1819 0,-0.0992 -0.0813,-0.18052 -0.1819,-0.18052 -0.1006,0 -0.1819,0.0813 -0.1819,0.18052 0,0.0276 0.007,0.0524 0.0165,0.0744 -0.25493,0.2949 -0.39274,0.66559 -0.39274,1.06109 0,0.0372 0.0303,0.0675 0.0689,0.0675 0.0372,0 0.0675,-0.0303 0.0675,-0.0675 0,-0.35967 0.1254,-0.69729 0.35553,-0.96601 0.0207,0.008 0.0427,0.0124 0.0661,0.0124"
			id="path67145" inkscape:connector-curvature="0" />
		<path
			style="fill:#ffffff;fill-opacity:1;fill-rule:nonzero;stroke:none;stroke-width:0.35277778"
			d="m -686.50859,-317.42531 c -0.0386,0 -0.0689,0.0303 -0.0689,0.0675 v 0.32521 c 0,0.0372 0.0303,0.0675 0.0689,0.0675 0.0372,0 0.0675,-0.0303 0.0675,-0.0675 v -0.32521 c 0,-0.0372 -0.0303,-0.0675 -0.0675,-0.0675"
			id="path67147" inkscape:connector-curvature="0" />
		<path
			style="fill:#ffffff;fill-opacity:1;fill-rule:nonzero;stroke:none;stroke-width:0.35277778"
			d="m -684.49666,-316.67841 c -0.0372,0 -0.0689,0.0303 -0.0689,0.0675 v 0.62425 c 0,0.0372 0.0317,0.0675 0.0689,0.0675 0.0372,0 0.0689,-0.0303 0.0689,-0.0675 v -0.62425 c 0,-0.0372 -0.0317,-0.0675 -0.0689,-0.0675"
			id="path67149" inkscape:connector-curvature="0" />
		<path
			style="fill:#ffffff;fill-opacity:1;fill-rule:nonzero;stroke:none;stroke-width:0.35277778"
			d="m -684.95003,-318.37615 c -0.28663,0 -0.5209,0.23426 -0.5209,0.5209 v 1.80936 c -0.0661,0.0262 -0.113,0.0923 -0.113,0.16812 0,0.1006 0.0813,0.1819 0.1819,0.1819 0.1006,0 0.18052,-0.0813 0.18052,-0.1819 0,-0.0758 -0.0469,-0.14194 -0.11299,-0.16812 v -1.80936 c 0,-0.21222 0.17225,-0.38448 0.38447,-0.38448 0.21222,0 0.38447,0.17226 0.38447,0.38448 v 0.7524 c 0,0.0386 0.0317,0.0689 0.0689,0.0689 0.0372,0 0.0675,-0.0303 0.0675,-0.0689 v -0.7524 c 0,-0.28664 -0.23289,-0.5209 -0.5209,-0.5209"
			id="path67151" inkscape:connector-curvature="0" />
		<path
			style="fill:#ffffff;fill-opacity:1;fill-rule:nonzero;stroke:none;stroke-width:0.35277778"
			d="m -683.97714,-318.21354 c -0.0358,0.01 -0.0579,0.0482 -0.0469,0.0841 0.0262,0.0882 0.04,0.18052 0.04,0.27423 v 1.33394 c 0,0.0386 0.0303,0.0689 0.0675,0.0689 0.0386,0 0.0689,-0.0303 0.0689,-0.0689 v -1.33394 c 0,-0.10611 -0.0152,-0.21222 -0.0455,-0.31282 -0.011,-0.0358 -0.0482,-0.0565 -0.0841,-0.0455"
			id="path67153" inkscape:connector-curvature="0" />
		<path
			style="fill:#ffffff;fill-opacity:1;fill-rule:nonzero;stroke:none;stroke-width:0.35277778"
			d="m -684.95003,-318.95769 c -0.60772,0 -1.10105,0.49472 -1.10105,1.10244 v 0.44648 c 0,0.0386 0.0303,0.0689 0.0675,0.0689 0.0386,0 0.0689,-0.0303 0.0689,-0.0689 v -0.44648 c 0,-0.53193 0.4327,-0.96601 0.96463,-0.96601 0.27836,0 0.54432,0.12127 0.7276,0.33073 0.0248,0.0289 0.0675,0.0317 0.0965,0.007 0.0276,-0.0248 0.0317,-0.0675 0.007,-0.0965 -0.20946,-0.23978 -0.51263,-0.37759 -0.83095,-0.37759"
			id="path67155" inkscape:connector-curvature="0" />
		<path
			style="fill:#ffffff;fill-opacity:1;fill-rule:nonzero;stroke:none;stroke-width:0.35277778"
			d="m -685.52881,-319.22916 c 0.18328,-0.0786 0.37758,-0.11713 0.57878,-0.11713 0.34175,0 0.66283,0.11162 0.9288,0.32384 0.0124,0.011 0.0275,0.0152 0.0427,0.0152 0.0207,0 0.04,-0.008 0.0538,-0.0248 0.0234,-0.0303 0.0179,-0.073 -0.011,-0.0965 -0.29076,-0.23151 -0.64079,-0.35416 -1.01423,-0.35416 -0.21911,0 -0.43271,0.0427 -0.63252,0.12678 -0.0345,0.0152 -0.051,0.0551 -0.0358,0.0896 0.0138,0.0358 0.0551,0.0524 0.0896,0.0372"
			id="path67157" inkscape:connector-curvature="0" />
		<path
			style="fill:#ffffff;fill-opacity:1;fill-rule:nonzero;stroke:none;stroke-width:0.35277778"
			d="m -685.98356,-316.99811 c -0.0372,0 -0.0675,0.0303 -0.0675,0.0675 v 0.52917 c 0,0.0386 0.0303,0.0689 0.0675,0.0689 0.0386,0 0.0689,-0.0303 0.0689,-0.0689 v -0.52917 c 0,-0.0372 -0.0303,-0.0675 -0.0689,-0.0675"
			id="path67159" inkscape:connector-curvature="0" />
		<path
			style="fill:#ffffff;fill-opacity:1;fill-rule:nonzero;stroke:none;stroke-width:0.35277778"
			d="m -684.95003,-317.86076 c -0.0372,0 -0.0675,0.0317 -0.0675,0.0689 v 1.6371 c 0,0.0372 0.0303,0.0689 0.0675,0.0689 0.0372,0 0.0689,-0.0317 0.0689,-0.0689 v -1.6371 c 0,-0.0372 -0.0317,-0.0689 -0.0689,-0.0689"
			id="path67161" inkscape:connector-curvature="0" />
	</g>
</svg>
