<?xml version="1.0" encoding="UTF-8" standalone="no"?><!-- Created with Inkscape (http://www.inkscape.org/) -->

<svg xmlns:cc="http://creativecommons.org/ns#" xmlns:dc="http://purl.org/dc/elements/1.1/"
	xmlns:inkscape="http://www.inkscape.org/namespaces/inkscape"
	xmlns:rdf="http://www.w3.org/1999/02/22-rdf-syntax-ns#"
	xmlns:sodipodi="http://sodipodi.sourceforge.net/DTD/sodipodi-0.dtd" height="3.3391407mm"
	id="svg30206" version="1.1" viewBox="0 0 3.4198999 3.3391407" width="3.4198999mm"
	xmlns="http://www.w3.org/2000/svg" inkscape:version="0.92.4 (5da689c313, 2019-01-14)"
	sodipodi:docname="world.svg">
	<defs id="defs30200" />
	<sodipodi:namedview bordercolor="#666666" borderopacity="1.0" id="base" pagecolor="#ffffff"
		showgrid="false" inkscape:current-layer="layer1" inkscape:cx="1772.1771"
		inkscape:cy="-922.26124" inkscape:document-units="mm" inkscape:pageopacity="0.0"
		inkscape:pageshadow="2" inkscape:window-height="1495" inkscape:window-maximized="1"
		inkscape:window-width="2880" inkscape:window-x="-13" inkscape:window-y="-13"
		inkscape:zoom="0.35" />
	<metadata id="metadata30203">
		<rdf:RDF>
			<cc:Work rdf:about="">
				<dc:format>image/svg+xml</dc:format>
				<dc:type rdf:resource="http://purl.org/dc/dcmitype/StillImage" />
				<dc:title></dc:title>
			</cc:Work>
		</rdf:RDF>
	</metadata>
	<g id="layer1" transform="translate(411.43614,98.520761)" inkscape:groupmode="layer"
		inkscape:label="Layer 1">
		<path
			style="fill:#ffffff;fill-opacity:1;fill-rule:nonzero;stroke:none;stroke-width:0.35277778"
			d="m -408.58674,-95.92166 c 0,-0.11988 0.0965,-0.21635 0.21635,-0.21635 0.11989,0 0.21773,0.0965 0.21773,0.21635 0,0.11989 -0.0978,0.21636 -0.21773,0.21636 -0.11989,0 -0.21635,-0.0965 -0.21635,-0.21636 m -1.07074,-0.28111 c 0,-0.20396 0.16536,-0.36932 0.36931,-0.36932 0.20395,0 0.36932,0.16536 0.36932,0.36932 0,0.20394 -0.16537,0.36931 -0.36932,0.36931 -0.20395,0 -0.36931,-0.16537 -0.36931,-0.36931 m -0.40652,0.7965 h -1.01562 c -0.0138,-0.0565 -0.0537,-0.10335 -0.10748,-0.1254 v -2.07119 c 0,-0.0345 0.0289,-0.0634 0.0634,-0.0634 h 0.50849 c 0.0386,0 0.0689,-0.0303 0.0689,-0.0675 0,-0.0386 -0.0303,-0.0689 -0.0689,-0.0689 h -0.32246 v -0.20119 c 0,-0.0124 0.01,-0.0221 0.0221,-0.0221 h 0.62012 c 0.0124,0 0.0234,0.01 0.0234,0.0221 v 0.2701 c 0,0.0372 0.0303,0.0675 0.0675,0.0675 h 0.0923 c 0.0262,0 0.0482,0.0221 0.0482,0.0482 z m 1.89204,0 h -0.12953 v -0.1695 c 0.16261,-0.0317 0.28525,-0.17501 0.28525,-0.34589 0,-0.1943 -0.15847,-0.35415 -0.35415,-0.35415 -0.19431,0 -0.35278,0.15985 -0.35278,0.35415 0,0.17088 0.12265,0.3142 0.28526,0.34589 v 0.1695 h -0.78273 v -0.29628 c 0.24667,-0.0331 0.43821,-0.24391 0.43821,-0.50022 0,-0.27837 -0.22737,-0.50574 -0.50574,-0.50574 -0.27974,0 -0.50573,0.22737 -0.50573,0.50574 0,0.25631 0.19016,0.46715 0.43683,0.50022 v 0.29628 h -0.57051 v -1.55305 h 0.31695 c 0.0372,0 0.0675,-0.0317 0.0675,-0.0689 v -1.25677 c 0,-0.0372 0.0207,-0.0744 0.0482,-0.0896 0.0358,-0.0207 0.0785,-0.004 0.10887,0.0138 0.10197,0.0606 0.33348,0.18604 0.5016,0.27699 0.0868,0.0455 0.15434,0.0813 0.17501,0.0937 0.0551,0.0317 0.0606,0.0358 0.0648,0.091 0.004,0.0592 0.003,0.63527 0,0.98805 -0.0648,0.0275 -0.11024,0.0923 -0.11024,0.16812 0,0.0992 0.0813,0.18052 0.18052,0.18052 0.10059,0 0.1819,-0.0813 0.1819,-0.18052 0,-0.0772 -0.0469,-0.14332 -0.11438,-0.1695 10e-4,-0.30455 0.003,-0.92742 -0.001,-0.99632 -0.01,-0.11851 -0.0579,-0.15572 -0.13228,-0.19844 -0.022,-0.0138 -0.0909,-0.051 -0.17777,-0.0978 -0.16812,-0.0896 -0.39825,-0.2136 -0.49885,-0.27285 -0.11576,-0.0689 -0.20257,-0.04 -0.24529,-0.0152 -0.0703,0.04 -0.11714,0.12127 -0.11714,0.20808 v 1.18925 h -0.24804 v -0.52228 c 0,-0.10197 -0.0827,-0.18465 -0.18466,-0.18465 h -0.0234 v -0.2012 c 0,-0.0882 -0.0717,-0.15847 -0.15986,-0.15847 h -0.62011 c -0.0868,0 -0.15848,0.0703 -0.15848,0.15847 v 0.2012 h -0.0496 c -0.11024,0 -0.19981,0.0896 -0.19981,0.19981 v 2.07119 c -0.0661,0.0276 -0.113,0.0923 -0.113,0.16813 0,0.10059 0.0813,0.18189 0.18052,0.18189 0.0661,0 0.12265,-0.0358 0.15572,-0.0882 h 2.92833 c 0.0372,0 0.0675,-0.0303 0.0675,-0.0675 0,-0.0372 -0.0303,-0.0689 -0.0675,-0.0689"
			id="path67037" inkscape:connector-curvature="0" />
	</g>
</svg>
