<svg enable-background="new 0 0 165.8 14.6" viewBox="0 0 165.8 14.6"
	xmlns="http://www.w3.org/2000/svg">
	<path
		d="m69.2.5v-.1h-3.8l-4.6 5.5v-5.5h-3.4v13.8h3.4v-5.9l5 5.9h3.9v-.2l-5.9-7zm.9 2.8h11.6v10.9h3.3v-10.9h11.5v-2.9h-26.4zm41.8 4c0 4.3-3.1 7.3-7.4 7.3s-7.4-3-7.4-7.3 3.1-7.3 7.4-7.3 7.4 3 7.4 7.3zm-3.4 0c0-2.5-1.6-4.3-4-4.3s-4 1.8-4 4.3 1.6 4.3 4 4.3 4-1.8 4-4.3zm57.3-6.9v13.8h-3.3v-4.8h-14.5l-3.2 4.7h-3.7v-.1l3.6-5c-1.7-.7-2.7-2.1-2.7-4.1 0-2.8 1.9-4.6 5-4.6h18.8zm-3.4 2.6h-14.8c-1.5 0-2.2.8-2.2 2s.7 2 2.2 2h14.8z"
		fill="#fff12d" />
	<path
		d="m0 .4h12.5v13.8h-3.4v-10.9h-5.7v10.9h-3.4zm42 6.9c0 4.3-3.1 7.3-7.4 7.3s-7.4-3-7.4-7.3 3-7.3 7.4-7.3c4.3 0 7.4 3 7.4 7.3zm-3.5 0c0-2.5-1.6-4.3-4-4.3s-4 1.8-4 4.3 1.6 4.3 4 4.3 4-1.8 4-4.3zm27.4-6.8v-.1h-3.8l-4.6 5.5v-5.5h-3.4v13.8h3.4v-5.9l5 5.9h3.9v-.2l-5.9-7zm.9 2.8h11.6v10.9h3.4v-10.9h11.5v-2.9h-26.5zm-14.5 10.9v-2.8h-5.4v-2.7h3.1v-2.8h-3.2v-2.7h5.4v-2.8h-8.9v13.8zm56.3-6.9c0 4.3-3.1 7.3-7.4 7.3s-7.4-3-7.4-7.3 3.1-7.3 7.4-7.3 7.4 3 7.4 7.3zm-3.4 0c0-2.5-1.6-4.3-4-4.3s-4 1.8-4 4.3 1.6 4.3 4 4.3 4-1.8 4-4.3zm57.3-6.9v13.8h-3.3v-4.8h-14.4l-3.2 4.7h-3.7v-.1l3.6-5c-1.7-.7-2.7-2.1-2.7-4.1 0-2.8 1.9-4.6 5-4.6h18.7zm-3.4 2.6h-14.8c-1.5 0-2.2.8-2.2 2s.7 2 2.2 2h14.8zm-133.2 2.6c0 2.4-1.7 5.1-5.4 5.1h-2.7v3.6h-3.3v-13.9h6.1c3.4 0 5.3 2.6 5.3 5.2zm-3.4-.1c0-1.3-.9-2.1-2.3-2.1h-2.5v4.2h2.4c1.8 0 2.4-1.1 2.4-2.1zm99.5.1c0 2.4-1.7 5.1-5.4 5.1h-2.7v3.6h-3.3v-13.9h6.1c3.4 0 5.3 2.6 5.3 5.2zm-3.4-.1c0-1.3-.9-2.1-2.3-2.1h-2.5v4.2h2.4c1.8 0 2.4-1.1 2.4-2.1zm14.2.9v7.8h3.3v-13.8h-1.3l-7.6 7.8v-7.8h-3.3v13.8h1.3z" />
</svg>