<svg height="53" viewBox="0 0 210 53" width="210" xmlns="http://www.w3.org/2000/svg">
	<g clip-path="url(#clip0)">
		<path
			d="M0 33.8134H16.1928V51.8238H11.8577V37.6728H4.33509V51.8238H0V33.8134ZM54.3161 42.8186C54.3161 48.3504 50.3635 52.3384 44.7534 52.3384C39.1433 52.3384 35.1907 48.3504 35.1907 42.8186C35.1907 37.2868 39.1433 33.2988 44.7534 33.2988C50.3635 33.2988 54.3161 37.2868 54.3161 42.8186ZM49.981 42.8186C49.981 39.4738 47.941 37.1582 44.7534 37.1582C41.6934 37.1582 39.5258 39.4738 39.5258 42.8186C39.5258 46.1634 41.6934 48.479 44.7534 48.479C47.8135 48.479 49.981 46.1634 49.981 42.8186ZM85.2993 33.9421V33.8134H80.3267L74.4615 41.0176V33.8134H70.1264V51.8238H74.4615V44.1051L80.9642 51.8238H85.9368V51.5665L78.2866 42.4327L85.2993 33.9421ZM86.4468 37.6728H101.365V51.9525H105.827V37.6728H120.745V33.8134H86.4468V37.6728ZM67.7039 51.8238V48.0931H60.6912V44.6197H64.7713V40.8889H60.6912V37.4155H67.7039V33.6848H56.2287V51.6952H67.7039V51.8238ZM140.635 42.8186C140.635 48.3504 136.683 52.3384 131.073 52.3384C125.463 52.3384 121.51 48.3504 121.51 42.8186C121.51 37.2868 125.463 33.2988 131.073 33.2988C136.683 33.2988 140.635 37.2868 140.635 42.8186ZM136.173 42.8186C136.173 39.4738 134.133 37.1582 130.945 37.1582C127.885 37.1582 125.718 39.4738 125.718 42.8186C125.718 46.1634 127.885 48.479 130.945 48.479C134.133 48.479 136.173 46.1634 136.173 42.8186ZM210.379 33.8134V51.8238H206.044V45.6488H187.429L183.349 51.8238H178.504V51.5665L183.221 45.0056C181.054 44.1051 179.779 42.1754 179.779 39.7311C179.779 36.129 182.329 33.8134 186.281 33.8134H210.379ZM206.044 37.2868H186.791C184.879 37.2868 183.986 38.316 183.986 39.8598C183.986 41.4035 184.879 42.4327 186.791 42.4327H206.044V37.2868ZM33.5332 40.6316C33.5332 43.8478 31.3656 47.1926 26.5205 47.1926H22.9505V51.8238H18.6154V33.8134H26.5205C31.1106 33.8134 33.5332 37.1582 33.5332 40.6316ZM29.0706 40.503C29.0706 38.8306 27.9231 37.6728 26.138 37.6728H22.9505V43.3332H26.138C28.3056 43.3332 29.0706 41.9181 29.0706 40.503ZM157.976 40.6316C157.976 43.8478 155.808 47.1926 150.963 47.1926H147.393V51.8238H143.058V33.8134H150.963C155.553 33.8134 157.976 37.1582 157.976 40.6316ZM153.641 40.503C153.641 38.8306 152.493 37.6728 150.708 37.6728H147.521V43.3332H150.708C152.876 43.3332 153.641 41.9181 153.641 40.503ZM172.001 41.6608V51.8238H176.336V33.8134H174.679L164.861 43.9764V33.8134H160.526V51.8238H162.311L172.001 41.6608Z"
			fill="#130800" fill-opacity="0.87" />
	</g>
	<defs>
		<clipPath id="clip0">
			<rect fill="white" height="53" width="210" />
		</clipPath>
	</defs>
</svg>
