<?xml version="1.0" encoding="UTF-8" standalone="no"?><!-- Created with Inkscape (http://www.inkscape.org/) -->

<svg xmlns:cc="http://creativecommons.org/ns#" xmlns:dc="http://purl.org/dc/elements/1.1/"
    xmlns:inkscape="http://www.inkscape.org/namespaces/inkscape"
    xmlns:rdf="http://www.w3.org/1999/02/22-rdf-syntax-ns#"
    xmlns:sodipodi="http://sodipodi.sourceforge.net/DTD/sodipodi-0.dtd" height="60" id="svg2"
    version="1.1" viewBox="0 0 108.30206 94.560581" width="69.403793"
    xmlns="http://www.w3.org/2000/svg" inkscape:version="0.92.4 (5da689c313, 2019-01-14)"
    sodipodi:docname="logo.svg">
    <defs id="defs4">
        <clipPath clipPathUnits="userSpaceOnUse" id="clipPath4230">
            <path d="M 0,98.995 H 748.462 V 0 H 0 Z" id="path4232"
                inkscape:connector-curvature="0" />
        </clipPath>
    </defs>
    <sodipodi:namedview bordercolor="#666666" borderopacity="1.0" fit-margin-bottom="0"
        fit-margin-left="0" fit-margin-right="0" fit-margin-top="0" id="base" pagecolor="#ffffff"
        showgrid="false" inkscape:current-layer="layer1" inkscape:cx="45.428791"
        inkscape:cy="49.892668" inkscape:document-units="px" inkscape:pageopacity="0.0"
        inkscape:pageshadow="2" inkscape:window-height="1575" inkscape:window-maximized="1"
        inkscape:window-width="2756" inkscape:window-x="-13" inkscape:window-y="-13"
        inkscape:zoom="7.9195959" />
    <metadata id="metadata7">
        <rdf:RDF>
            <cc:Work rdf:about="">
                <dc:format>image/svg+xml</dc:format>
                <dc:type rdf:resource="http://purl.org/dc/dcmitype/StillImage" />
                <dc:title />
            </cc:Work>
        </rdf:RDF>
    </metadata>
    <g id="layer1" transform="translate(-110.10436,-27.939058)" inkscape:groupmode="layer"
        inkscape:label="Layer 1">
        <g id="g4146" transform="matrix(1.25,0,0,-1.25,164.78229,82.201183)">
            <path
                style="fill:none;stroke:#ffffff;stroke-width:0.80900002;stroke-linecap:round;stroke-linejoin:round;stroke-miterlimit:10;stroke-dasharray:none;stroke-opacity:1"
                d="M 0,0 0.138,0.24 H -0.134 Z" id="path4148" inkscape:connector-curvature="0" />
        </g>
        <g id="g4150" transform="matrix(1.25,0,0,-1.25,196.05791,55.178433)">
            <path style="fill:#dbdbdb;fill-opacity:1;fill-rule:nonzero;stroke:none"
                d="M 0,0 V 0 L -12.347,21.387 H -37.035 L -24.69,0 Z" id="path4152"
                inkscape:connector-curvature="0" />
        </g>
        <g id="g4154" transform="matrix(1.25,0,0,-1.25,196.05791,55.178433)">
            <path
                style="fill:none;stroke:#ffffff;stroke-width:0.80900002;stroke-linecap:round;stroke-linejoin:round;stroke-miterlimit:10;stroke-dasharray:none;stroke-opacity:1"
                d="M 0,0 V 0 L -12.347,21.387 H -37.035 L -24.69,0 Z" id="path4156"
                inkscape:connector-curvature="0" />
        </g>
        <g id="g4158" transform="matrix(1.25,0,0,-1.25,165.19479,55.178433)">
            <path style="fill:#12bcf8;fill-opacity:1;fill-rule:nonzero;stroke:none"
                d="m 0,0 -6.407,-11.091 -5.938,-10.287 h 11.881 0.272 l 6.174,10.69 H 18.518 L 24.69,0 Z"
                id="path4160" inkscape:connector-curvature="0" />
        </g>
        <g id="g4162" transform="matrix(1.25,0,0,-1.25,165.19479,55.178433)">
            <path
                style="fill:none;stroke:#ffffff;stroke-width:0.80900002;stroke-linecap:round;stroke-linejoin:round;stroke-miterlimit:10;stroke-dasharray:none;stroke-opacity:1"
                d="m 0,0 -6.407,-11.091 -5.938,-10.287 h 11.881 0.272 l 6.174,10.69 H 18.518 L 24.69,0 Z"
                id="path4164" inkscape:connector-curvature="0" />
        </g>
        <g id="g4166" transform="matrix(1.25,0,0,-1.25,149.76391,28.445063)">
            <path style="fill:#f95658;fill-opacity:1;fill-rule:nonzero;stroke:none"
                d="m 0,0 -12.348,-21.387 6.177,-10.688 6.171,-10.69 5.937,10.287 6.408,11.091 z"
                id="path4168" inkscape:connector-curvature="0" />
        </g>
        <g id="g4170" transform="matrix(1.25,0,0,-1.25,149.76391,28.445063)">
            <path
                style="fill:none;stroke:#ffffff;stroke-width:0.80900002;stroke-linecap:round;stroke-linejoin:round;stroke-miterlimit:10;stroke-dasharray:none;stroke-opacity:1"
                d="m 0,0 -12.348,-21.387 6.177,-10.688 6.171,-10.69 5.937,10.287 6.408,11.091 z"
                id="path4172" inkscape:connector-curvature="0" />
        </g>
        <g id="g4174" transform="matrix(1.25,0,0,-1.25,126.02854,68.539063)">
            <path style="fill:#f95658;fill-opacity:1;fill-rule:nonzero;stroke:none"
                d="m 0,0 -12.342,-21.38 h -10e-4 L 0,-42.764 12.348,-21.38 Z" id="path4176"
                inkscape:connector-curvature="0" />
        </g>
        <g id="g4178" transform="matrix(1.25,0,0,-1.25,126.02854,68.539063)">
            <path
                style="fill:none;stroke:#ffffff;stroke-width:0.80900002;stroke-linecap:round;stroke-linejoin:round;stroke-miterlimit:10;stroke-dasharray:none;stroke-opacity:1"
                d="m 0,0 -12.342,-21.38 h -10e-4 L 0,-42.764 12.348,-21.38 Z" id="path4180"
                inkscape:connector-curvature="0" />
        </g>
        <g id="g4182" transform="matrix(1.25,0,0,-1.25,203.53467,68.539063)">
            <path style="fill:#dbdbdb;fill-opacity:1;fill-rule:nonzero;stroke:none"
                d="m 0,0 h -12.154 -12.535 l 6.17,-10.689 6.173,-10.691 h 24.69 0.004 z"
                id="path4184" inkscape:connector-curvature="0" />
        </g>
        <g id="g4186" transform="matrix(1.25,0,0,-1.25,203.53467,68.539063)">
            <path
                style="fill:none;stroke:#ffffff;stroke-width:0.80900002;stroke-linecap:round;stroke-linejoin:round;stroke-miterlimit:10;stroke-dasharray:none;stroke-opacity:1"
                d="m 0,0 h -12.154 -12.535 l 6.17,-10.689 6.173,-10.691 h 24.69 0.004 z"
                id="path4188" inkscape:connector-curvature="0" />
        </g>
        <g id="g4190" transform="matrix(1.25,0,0,-1.25,172.67291,121.99368)">
            <path style="fill:#12bcf8;fill-opacity:1;fill-rule:nonzero;stroke:none"
                d="M 0,0 H 24.689 L 37.033,21.384 H 12.344 Z" id="path4192"
                inkscape:connector-curvature="0" />
        </g>
        <g id="g4194" transform="matrix(1.25,0,0,-1.25,172.67291,121.99368)">
            <path
                style="fill:none;stroke:#ffffff;stroke-width:0.80900002;stroke-linecap:round;stroke-linejoin:round;stroke-miterlimit:10;stroke-dasharray:none;stroke-opacity:1"
                d="M 0,0 H 24.689 L 37.033,21.384 H 12.344 Z" id="path4196"
                inkscape:connector-curvature="0" />
        </g>
        <g id="g4198" transform="matrix(1.25,0,0,-1.25,180.38654,81.900933)">
            <path style="fill:#f95658;fill-opacity:1;fill-rule:nonzero;stroke:none"
                d="M 0,0 -6.171,10.689 -12.346,0 l -0.137,-0.24 6.034,-10.45 -6.034,-10.455 6.312,-10.929 12.344,21.384 z"
                id="path4200" inkscape:connector-curvature="0" />
        </g>
        <g id="g4202" transform="matrix(1.25,0,0,-1.25,180.38654,81.900933)">
            <path
                style="fill:none;stroke:#ffffff;stroke-width:0.80900002;stroke-linecap:round;stroke-linejoin:round;stroke-miterlimit:10;stroke-dasharray:none;stroke-opacity:1"
                d="M 0,0 -6.171,10.689 -12.346,0 l -0.137,-0.24 6.034,-10.45 -6.034,-10.455 6.312,-10.929 12.344,21.384 z"
                id="path4204" inkscape:connector-curvature="0" />
        </g>
        <g id="g4206" transform="matrix(1.25,0,0,-1.25,164.78229,82.201183)">
            <path style="fill:#dbdbdb;fill-opacity:1;fill-rule:nonzero;stroke:none"
                d="m 0,0 -0.134,0.24 h -11.881 l -6.171,10.69 h -12.817 l 12.348,-21.38 H -6.032 6.034 Z"
                id="path4208" inkscape:connector-curvature="0" />
        </g>
        <g id="g4210" transform="matrix(1.25,0,0,-1.25,164.78229,82.201183)">
            <path
                style="fill:none;stroke:#ffffff;stroke-width:0.80900002;stroke-linecap:round;stroke-linejoin:round;stroke-miterlimit:10;stroke-dasharray:none;stroke-opacity:1"
                d="m 0,0 -0.134,0.24 h -11.881 l -6.171,10.69 h -12.817 l 12.348,-21.38 H -6.032 6.034 Z"
                id="path4212" inkscape:connector-curvature="0" />
        </g>
        <g id="g4214" transform="matrix(1.25,0,0,-1.25,157.24191,95.263933)">
            <path style="fill:#12bcf8;fill-opacity:1;fill-rule:nonzero;stroke:none"
                d="m 0,0 h -12.623 l -12.348,-21.384 h 24.693 l 6.31,10.93 L 12.066,0 Z"
                id="path4216" inkscape:connector-curvature="0" />
        </g>
        <g id="g4218" transform="matrix(1.25,0,0,-1.25,157.24191,95.263933)">
            <path
                style="fill:none;stroke:#ffffff;stroke-width:0.80900002;stroke-linecap:round;stroke-linejoin:round;stroke-miterlimit:10;stroke-dasharray:none;stroke-opacity:1"
                d="m 0,0 h -12.623 l -12.348,-21.384 h 24.693 l 6.31,10.93 L 12.066,0 Z"
                id="path4220" inkscape:connector-curvature="0" />
        </g>
    </g>
</svg>
