<svg height="3.43958mm" viewBox="0 0 2.8649399 3.43958" width="2.86494mm"
	xmlns="http://www.w3.org/2000/svg">
	<path
		d="m-209.72531 68.649313v2.38539c-.12127-.0262-.21359-.13918-.21359-.27423v-2.21176c.0593.0524.13229.0882.21359.1006m.52366.007v.93707l.33073-.24529.29765.26045v-.95223h1.11346v2.38401h-2.12907v-2.38401zm.49196 0v.65044l-.15297-.13505-.20257.15021v-.6656zm-.9481-.66835h2.09876c.0262.0661.0909.113.16674.113.1006 0 .1819-.0813.1819-.1819 0-.0992-.0813-.18052-.1819-.18052-.0758 0-.14056.0469-.16812.113h-2.09738c-.23013 0-.41754.18052-.41754.40239v2.50665c0 .23013.18052.41754.40239.41754.003 0 .005-.001.008-.001s.004.001.007.001h2.2655c.0386 0 .0689-.0317.0689-.0689v-2.52043c0-.0386-.0303-.0689-.0689-.0689h-2.2655c-.15434 0-.28112-.11989-.28112-.26596 0-.14608.12678-.26597.28112-.26597"
		transform="translate(210.07533 -67.738543)" />
</svg>