<svg height="4.16881mm" viewBox="0 0 3.6670001 4.1688099" width="3.667mm"
	xmlns="http://www.w3.org/2000/svg">
	<g transform="translate(414.58351 -84.004881)">
		<path
			d="m-413.58303 86.526971c-.0124-.0138-.0303-.0207-.0482-.0207h-.6022c-.0276-.0661-.0923-.113-.1695-.113-.0992 0-.18052.0813-.18052.18052 0 .1006.0813.1819.18052.1819.0772 0 .14194-.0468.1695-.113h.57189l.49471.51539v.94671c0 .0372.0303.0689.0675.0689.0386 0 .0689-.0317.0689-.0689v-.97427c0-.0165-.007-.0344-.0193-.0469zm0 0" />
		<path
			d="m-411.09843 86.393301c-.0758 0-.14055.0469-.16812.113h-.6022c-.0179 0-.0358.007-.0496.0207l-.5333.55672c-.011.0124-.0179.0303-.0179.0469v.97427c0 .0372.0303.0675.0675.0675.0386 0 .0689-.0303.0689-.0675v-.94671l.49334-.51539h.57326c.0276.0662.0923.113.16812.113.1006 0 .18191-.0813.18191-.1819 0-.0992-.0813-.18052-.18191-.18052" />
		<path
			d="m-411.60692 86.233441.45751-.4575c.0165.005.0331.008.051.008.1006 0 .1819-.0813.1819-.18052 0-.1006-.0813-.1819-.1819-.1819s-.1819.0813-.1819.1819c0 .0317.01.0606.0234.0868l-.40652.40653h-.30317v-.32522c.0661-.0275.113-.0923.113-.16812 0-.1006-.0813-.1819-.18191-.1819-.0992 0-.18052.0813-.18052.1819 0 .0758.0469.14056.113.16812v.35416l-.57878.57877v-1.05833l.7028-.7028v-.32935c.0661-.0276.11438-.0923.11438-.16812 0-.1006-.0813-.18191-.1819-.18191s-.1819.0813-.1819.18191c0 .0758.0469.14056.113.16812v.27285l-.56638.56637v-1.09829c.0661-.0276.11301-.0923.11301-.1695 0-.0992-.0813-.18053-.18191-.18053-.0992 0-.18052.0813-.18052.18053 0 .0772.0469.14193.113.1695v1.09829l-.56775-.56637v-.27285c.0675-.0276.11438-.0923.11438-.16812 0-.1006-.0813-.18191-.18191-.18191-.10059 0-.1819.0813-.1819.18191 0 .0758.0469.14056.113.16812v.32935l.70418.7028v1.05833l-.57877-.57876v-.35416c.0661-.0276.113-.0923.113-.16812 0-.1006-.0813-.1819-.1819-.1819-.0992 0-.18053.0813-.18053.1819 0 .0758.0455.14056.113.16812v.32522h-.30317l-.40238-.40239c.011-.0234.0179-.051.0179-.0786 0-.10059-.0813-.1819-.18053-.1819-.10059 0-.1819.0813-.1819.1819s.0813.18191.1819.18191c.0207 0 .0413-.006.0606-.0124l.44786.44786h.41066l.73174.73174.73174-.73174zm0 0" />
		<path
			d="m-414.06534 85.118611c.10059 0 .1819-.0813.1819-.18052 0-.1006-.0813-.1819-.1819-.1819s-.1819.0813-.1819.1819c0 .0992.0813.18052.1819.18052" />
		<path
			d="m-411.43467 85.118611c.0992 0 .18053-.0813.18053-.18052 0-.1006-.0813-.1819-.18053-.1819-.10059 0-.1819.0813-.1819.1819 0 .0992.0813.18052.1819.18052" />
	</g>
</svg>