<svg height="4.11754mm" viewBox="0 0 2.9484913 4.1175399" width="2.948491mm"
	xmlns="http://www.w3.org/2000/svg">
	<path
		d="m-163.48449-46.922796c-.0482.10198-.13091.16261-.22875.16261h-.72347c.008-.16261-.0275-.32384-.10749-.46716-.11438-.20532-.37345-.42719-.69039-.64905.0469-.0799.0937-.16261.13918-.24254h1.11345c.18741.33211.42306.74966.49334.88057.051.091.051.21222.004.31557m-1.11483.31833c-.0469.16674-.14608.3073-.2825.40376l-.16399-.28801.16674-.59531c.011-.0358-.01-.073-.0469-.0841-.0358-.01-.0744.011-.0841.0482l-.12953.46302-.62425-1.09967c-.0179-.0331-.0593-.0441-.0923-.0262-.0331.0193-.0441.0606-.0262.0937l.32659.57601h-.29628c-.0372 0-.0675.0303-.0675.0689 0 .0372.0303.0689.0675.0689h.37345l.47818.84198c-.34451.15572-.75792.0248-.94534-.31006-.20257-.3638-.19705-1.27468-.18603-1.8383.48783.28525 1.26504.75792 1.46899 1.12172.0937.16812.11576.36518.0634.55535m-.22187-1.99126.006-.01.001-.70142h.20809c.0358 0 .0648-.0289.0648-.0634 0-.0358-.0289-.0634-.0634-.0634h-.25494c-.0165-.007-.0758-.0427-.0758-.12678 0-.0331.008-.0565.0248-.0703.0138-.0124.0303-.0152.0386-.0152h.67524c.003 0 .0124.001.0221.011.01.01.0207.0303.0207.0744 0 .0372-.008.0661-.0262.091-.0138.0165-.0289.0289-.0441.0413l-.0358.0276v.78961l.20671.36519h-.96876c.0772-.1323.14745-.25356.20119-.35003m1.44418 1.29674c-.0772-.14332-.35415-.6339-.51263-.91364l-.24391-.43133v-.69453c.0165-.0138.0358-.0317.0538-.0551.0345-.0455.0524-.10198.0524-.16675 0-.0689-.0193-.1254-.0579-.16398-.0303-.0303-.0717-.0482-.11162-.0482h-.67524c-.0413 0-.0868.0165-.11989.0441-.0331.0276-.0703.0786-.0703.16812 0 .13505.0827.20396.12265.22876l.001.68626c-.0675.11713-.15572.2701-.24805.43133l-.15296.26458c-.2577-.17363-.5457-.34589-.82269-.5085l-.10059-.0593-.003.11576c-.0165.77445-.0165 1.63435.19981 2.02433.15985.28526.45751.44649.76206.44649.1254 0 .2508-.0289.36931-.0841l.18466.32521c.0124.022.0358.0345.0593.0345.011 0 .0234-.003.0331-.01.0331-.0179.0441-.0593.0262-.0923l-.18328-.32522c.16812-.11438.28939-.28388.34588-.48645.007-.0207.011-.0427.0152-.0648h.74415c.14469 0 .27009-.0882.33899-.23565.0648-.13918.062-.30455-.007-.42995"
		transform="translate(166.27228 49.773056)" />
</svg>