<svg height="3.52224mm" viewBox="0 0 3.64079 3.5222399" width="3.64079mm"
	xmlns="http://www.w3.org/2000/svg">
	<g transform="translate(468.24301 57.03493)">
		<path
			d="m-465.33671-53.953589c-.0248 0-.0469.006-.0689.0138l-.43546-.450622c-.0138-.0138-.0317-.0207-.0496-.0207h-.50849c-.47543 0-.86265-.38723-.86265-.86265 0-.44373.34588-.82131.78823-.8599.0372-.003.0648-.0358.062-.0744-.003-.0372-.0372-.0648-.0744-.062-.51125.0441-.91226.48231-.91226.99632 0 .55121.44786.999081.99908.999081h.47955l.41755.42994c-.011.0221-.0165.0469-.0165.073 0 .10059.0813.181899.1819.181899.10059 0 .18052-.0813.18052-.181899 0-.1006-.0799-.1819-.18052-.1819" />
		<path
			d="m-464.85164-54.60816c-.0758 0-.14056.0469-.16813.113h-.33348l-.40377-.40376c-.0124-.0124-.0303-.0207-.0482-.0207h-.67661c-.19568 0-.35554-.15848-.35554-.35416s.15986-.35553.35554-.35553h.67661c.0179 0 .0358-.007.0482-.0193l.40377-.40377h.33348c.0276.0661.0923.113.16813.113.10059 0 .1819-.0813.1819-.18052 0-.1006-.0813-.1819-.1819-.1819-.0758 0-.14056.0468-.16813.113h-.36242c-.0179 0-.0358.007-.0482.0193l-.40239.40377h-.64905c-.27148 0-.49196.22049-.49196.49196 0 .27148.22048.49196.49196.49196h.64905l.40239.40239c.0124.0138.0303.0207.0482.0207h.36242c.0276.0661.0923.113.16813.113.10059 0 .1819-.0813.1819-.1819s-.0813-.18053-.1819-.18053" />
		<path
			d="m-466.14425-53.9908c-.0372 0-.0675.0303-.0675.0689v.27285h-.54019v-.31419c0-.0317-.0221-.0593-.0524-.0675-.11576-.0289-.22738-.0758-.32935-.13643-.0276-.0152-.062-.011-.0841.011l-.22187.221872-.3831-.381721.22325-.22187c.022-.022.0262-.0565.011-.0841-.062-.10197-.10748-.21359-.1378-.33072-.008-.0303-.0345-.051-.0661-.051h-.31419v-.54019h.31419c.0317 0 .0579-.0207.0661-.051.0303-.11713.0758-.22875.1378-.33073.0152-.0275.011-.062-.011-.0841l-.22325-.22186.3831-.38172.22187.22187c.022.022.0565.0262.0841.011.10197-.0606.21359-.107491.32935-.137801.0303-.007.0524-.0344.0524-.0661v-.31419h.54019v.27009c0 .0386.0303.0689.0675.0689.0386 0 .0689-.0303.0689-.0689v-.33899c0-.0372-.0303-.0675-.0689-.0675h-.67661c-.0372 0-.0689.0303-.0689.0675v.3321c-.0923.0276-.18328.0648-.26734.11025l-.23427-.23427c-.0262-.0248-.0717-.0248-.0965 0l-.47956.47956c-.0262.0262-.0262.0703 0 .0965l.23427.23427c-.0455.0854-.0827.17501-.11162.26871h-.33073c-.0372 0-.0675.0303-.0675.0675v.67799c0 .0372.0303.0675.0675.0675h.33073c.0289.0937.0661.18328.11162.26872l-.23427.234261c-.0262.0262-.0262.0703 0 .0965l.47956.47956c.0262.0262.0689.0262.0965 0l.23427-.234271c.0841.0455.17501.0827.26734.11025v.33211c0 .0372.0317.0675.0689.0675h.67661c.0386 0 .0689-.0303.0689-.0675v-.341759c0-.0386-.0303-.0689-.0689-.0689" />
		<path
			d="m-466.08086-56.27283c-.0372 0-.0675.0303-.0675.0675 0 .0386.0303.0689.0675.0689h.19155c.0179 0 .0358-.007.0482-.0207l.44649-.446491c.0179.006.0372.01.0579.01.10059 0 .1819-.0813.1819-.18191 0-.0992-.0813-.1819-.1819-.1819s-.18191.0827-.18191.1819c0 .0303.008.0579.0207.0827l-.42031.4203zm0 0" />
		<path
			d="m-464.85164-55.15937c-.0634 0-.11438-.051-.11438-.11438 0-.0634.051-.11438.11438-.11438.0634 0 .11437.051.11437.11438 0 .0634-.051.11438-.11437.11438m0-.36243c-.11301 0-.20809.0758-.2384.18053h-1.22922c-.0276-.0675-.0923-.11438-.16812-.11438-.10059 0-.1819.0813-.1819.1819s.0813.1819.1819.1819c.0758 0 .14057-.0468.16812-.113h1.22922c.0303.10336.12539.17915.2384.17915.13642 0 .24942-.11162.24942-.24805 0-.1378-.113-.24805-.24942-.24805" />
	</g>
</svg>