<svg height="3.78684mm" viewBox="0 0 3.3693399 3.78684" width="3.36934mm"
	xmlns="http://www.w3.org/2000/svg">
	<g transform="translate(686.57753 319.48271)">
		<path
			d="m-683.32257-317.5259v-.32935c0-.33073-.0978-.64768-.28387-.91916-.0207-.0317-.0634-.0386-.0951-.0179-.0303.022-.0386.0634-.0179.0951.17088.24805.26045.54019.26045.84198v.32935c-.0661.0276-.113.0923-.113.16812 0 .1006.0813.1819.1819.1819s.1819-.0813.1819-.1819c0-.0758-.0469-.14056-.11437-.16812" />
		<path
			d="m-686.01939-318.80886c.1006 0 .1819-.0813.1819-.1819 0-.0992-.0813-.18052-.1819-.18052s-.1819.0813-.1819.18052c0 .0276.007.0524.0165.0744-.25493.2949-.39274.66559-.39274 1.06109 0 .0372.0303.0675.0689.0675.0372 0 .0675-.0303.0675-.0675 0-.35967.1254-.69729.35553-.96601.0207.008.0427.0124.0661.0124" />
		<path
			d="m-686.50859-317.42531c-.0386 0-.0689.0303-.0689.0675v.32521c0 .0372.0303.0675.0689.0675.0372 0 .0675-.0303.0675-.0675v-.32521c0-.0372-.0303-.0675-.0675-.0675" />
		<path
			d="m-684.49666-316.67841c-.0372 0-.0689.0303-.0689.0675v.62425c0 .0372.0317.0675.0689.0675s.0689-.0303.0689-.0675v-.62425c0-.0372-.0317-.0675-.0689-.0675" />
		<path
			d="m-684.95003-318.37615c-.28663 0-.5209.23426-.5209.5209v1.80936c-.0661.0262-.113.0923-.113.16812 0 .1006.0813.1819.1819.1819s.18052-.0813.18052-.1819c0-.0758-.0469-.14194-.11299-.16812v-1.80936c0-.21222.17225-.38448.38447-.38448s.38447.17226.38447.38448v.7524c0 .0386.0317.0689.0689.0689s.0675-.0303.0675-.0689v-.7524c0-.28664-.23289-.5209-.5209-.5209" />
		<path
			d="m-683.97714-318.21354c-.0358.01-.0579.0482-.0469.0841.0262.0882.04.18052.04.27423v1.33394c0 .0386.0303.0689.0675.0689.0386 0 .0689-.0303.0689-.0689v-1.33394c0-.10611-.0152-.21222-.0455-.31282-.011-.0358-.0482-.0565-.0841-.0455" />
		<path
			d="m-684.95003-318.95769c-.60772 0-1.10105.49472-1.10105 1.10244v.44648c0 .0386.0303.0689.0675.0689.0386 0 .0689-.0303.0689-.0689v-.44648c0-.53193.4327-.96601.96463-.96601.27836 0 .54432.12127.7276.33073.0248.0289.0675.0317.0965.007.0276-.0248.0317-.0675.007-.0965-.20946-.23978-.51263-.37759-.83095-.37759" />
		<path
			d="m-685.52881-319.22916c.18328-.0786.37758-.11713.57878-.11713.34175 0 .66283.11162.9288.32384.0124.011.0275.0152.0427.0152.0207 0 .04-.008.0538-.0248.0234-.0303.0179-.073-.011-.0965-.29076-.23151-.64079-.35416-1.01423-.35416-.21911 0-.43271.0427-.63252.12678-.0345.0152-.051.0551-.0358.0896.0138.0358.0551.0524.0896.0372" />
		<path
			d="m-685.98356-316.99811c-.0372 0-.0675.0303-.0675.0675v.52917c0 .0386.0303.0689.0675.0689.0386 0 .0689-.0303.0689-.0689v-.52917c0-.0372-.0303-.0675-.0689-.0675" />
		<path
			d="m-684.95003-317.86076c-.0372 0-.0675.0317-.0675.0689v1.6371c0 .0372.0303.0689.0675.0689s.0689-.0317.0689-.0689v-1.6371c0-.0372-.0317-.0689-.0689-.0689" />
	</g>
</svg>