<svg height="3.339141mm" viewBox="0 0 3.4198999 3.3391407" width="3.4199mm"
	xmlns="http://www.w3.org/2000/svg">
	<path
		d="m-408.58674-95.92166c0-.11988.0965-.21635.21635-.21635.11989 0 .21773.0965.21773.21635 0 .11989-.0978.21636-.21773.21636-.11989 0-.21635-.0965-.21635-.21636m-1.07074-.28111c0-.20396.16536-.36932.36931-.36932s.36932.16536.36932.36932c0 .20394-.16537.36931-.36932.36931s-.36931-.16537-.36931-.36931m-.40652.7965h-1.01562c-.0138-.0565-.0537-.10335-.10748-.1254v-2.07119c0-.0345.0289-.0634.0634-.0634h.50849c.0386 0 .0689-.0303.0689-.0675 0-.0386-.0303-.0689-.0689-.0689h-.32246v-.20119c0-.0124.01-.0221.0221-.0221h.62012c.0124 0 .0234.01.0234.0221v.2701c0 .0372.0303.0675.0675.0675h.0923c.0262 0 .0482.0221.0482.0482zm1.89204 0h-.12953v-.1695c.16261-.0317.28525-.17501.28525-.34589 0-.1943-.15847-.35415-.35415-.35415-.19431 0-.35278.15985-.35278.35415 0 .17088.12265.3142.28526.34589v.1695h-.78273v-.29628c.24667-.0331.43821-.24391.43821-.50022 0-.27837-.22737-.50574-.50574-.50574-.27974 0-.50573.22737-.50573.50574 0 .25631.19016.46715.43683.50022v.29628h-.57051v-1.55305h.31695c.0372 0 .0675-.0317.0675-.0689v-1.25677c0-.0372.0207-.0744.0482-.0896.0358-.0207.0785-.004.10887.0138.10197.0606.33348.18604.5016.27699.0868.0455.15434.0813.17501.0937.0551.0317.0606.0358.0648.091.004.0592.003.63527 0 .98805-.0648.0275-.11024.0923-.11024.16812 0 .0992.0813.18052.18052.18052.10059 0 .1819-.0813.1819-.18052 0-.0772-.0469-.14332-.11438-.1695.001-.30455.003-.92742-.001-.99632-.01-.11851-.0579-.15572-.13228-.19844-.022-.0138-.0909-.051-.17777-.0978-.16812-.0896-.39825-.2136-.49885-.27285-.11576-.0689-.20257-.04-.24529-.0152-.0703.04-.11714.12127-.11714.20808v1.18925h-.24804v-.52228c0-.10197-.0827-.18465-.18466-.18465h-.0234v-.2012c0-.0882-.0717-.15847-.15986-.15847h-.62011c-.0868 0-.15848.0703-.15848.15847v.2012h-.0496c-.11024 0-.19981.0896-.19981.19981v2.07119c-.0661.0276-.113.0923-.113.16813 0 .10059.0813.18189.18052.18189.0661 0 .12265-.0358.15572-.0882h2.92833c.0372 0 .0675-.0303.0675-.0675s-.0303-.0689-.0675-.0689"
		transform="translate(411.43614 98.520761)" />
</svg>